<svg xmlns="http://www.w3.org/2000/svg" width="279" height="257" fill="none" viewBox="0 0 279 257">
  <path fill="#59B17A" fill-opacity=".08" d="M40.55 186.003c7.382-18.271 28.178-27.099 46.45-19.717l278.844 112.661-26.733 66.166-278.844-112.66c-18.272-7.382-27.1-28.179-19.717-46.45Zm98.551-152.92c7.382-18.271 28.178-27.099 46.449-19.716l278.845 112.66-26.733 66.166-278.844-112.66c-18.272-7.382-27.099-28.178-19.717-46.45ZM13.366 78.96c7.383-18.272 28.179-27.1 46.45-19.717l278.844 112.66-26.733 66.166-278.844-112.66c-18.271-7.382-27.099-28.178-19.717-46.45Z"/>
</svg>
