<svg xmlns="http://www.w3.org/2000/svg" style="display:none">
  <symbol id="icon-logo" viewBox="0 0 44 44">
    <rect width="44" height="44" rx="8" fill="#59B17A"/>
    <path d="M22 8c-1.5 0-3 .75-3.75 2.25L16 16h-2.25c-1.5 0-2.25 1.2-2.25 2.25s.75 2.25 2.25 2.25H16l3 7.5c.45 1.05 1.5 1.5 2.25 1.5h1.5c.75 0 1.8-.45 2.25-1.5l3-7.5h2.25c1.5 0 2.25-1.2 2.25-2.25S32.75 16 31.25 16H28l-2.25-5.25C25 8.75 23.5 8 22 8z" fill="white"/>
  </symbol>

  <symbol id="icon-pills-decor" viewBox="0 0 279 257" fill="none">
    <path fill="#59B17A" fill-opacity=".08" d="M40.55 186.003c7.382-18.271 28.178-27.099 46.45-19.717l278.844 112.661-26.733 66.166-278.844-112.66c-18.272-7.382-27.1-28.179-19.717-46.45Zm98.551-152.92c7.382-18.271 28.178-27.099 46.449-19.716l278.845 112.66-26.733 66.166-278.844-112.66c-18.272-7.382-27.099-28.178-19.717-46.45ZM13.366 78.96c7.383-18.272 28.179-27.1 46.45-19.717l278.844 112.66-26.733 66.166-278.844-112.66c-18.271-7.382-27.099-28.178-19.717-46.45Z"/>
  </symbol>
</svg>
